<?xml version="1.0" encoding="utf-8"?>
<!-- Generator: Adobe Illustrator 26.3.1, SVG Export Plug-In . SVG Version: 6.00 Build 0)  -->
<svg version="1.1" id="Layer_1" xmlns="http://www.w3.org/2000/svg" xmlns:xlink="http://www.w3.org/1999/xlink" x="0px" y="0px"
	 viewBox="0 0 60 60" style="enable-background:new 0 0 60 60;" xml:space="preserve">
<style type="text/css">
	.st0{fill:#65D46E;}
</style>
<g id="Layer_2_00000128446879651994371890000018280298340612646072_">
	<rect x="12.5" y="11.3" width="35.6" height="35.6"/>
</g>
<g id="Capa_1">
	<g>
		<path class="st0" d="M30,0C13.5,0,0,13.5,0,30s13.5,30,30,30s30-13.5,30-30S46.5,0,30,0z M45.6,30.8l-22,15
			C23.4,45.9,23.2,46,23,46s-0.3,0-0.5-0.1C22.2,45.7,22,45.4,22,45V15c0-0.4,0.2-0.7,0.5-0.9s0.7-0.1,1,0.1l22,15
			c0.3,0.2,0.4,0.5,0.4,0.8S45.8,30.6,45.6,30.8z"/>
	</g>
</g>
</svg>
