<?xml version="1.0" encoding="utf-8"?>
<!-- Generator: Adobe Illustrator 26.3.1, SVG Export Plug-In . SVG Version: 6.00 Build 0)  -->
<svg version="1.1" id="Layer_1" xmlns="http://www.w3.org/2000/svg" xmlns:xlink="http://www.w3.org/1999/xlink" x="0px" y="0px"
	 viewBox="0 0 595.3 178.5" style="enable-background:new 0 0 595.3 178.5;" xml:space="preserve">
<style type="text/css">
	.st0{fill:#FFFFFF;}
</style>
<g id="__x0023_Layer_x0020_1">
	<path class="st0" d="M89.3,0C40,0,0,40,0,89.3s40,89.3,89.3,89.3s89.3-40,89.3-89.3S138.6,0,89.3,0L89.3,0z M130.2,128.8
		L130.2,128.8c-1.6,2.6-5,3.5-7.7,1.8c-20.9-12.8-47.3-15.7-78.4-8.6c-3,0.7-6-1.2-6.7-4.2s1.2-6,4.2-6.7c34-7.8,63.2-4.4,86.7,9.9
		C131,122.7,131.8,126.1,130.2,128.8L130.2,128.8z M141.1,104.5L141.1,104.5c-2,3.3-6.3,4.3-9.6,2.3c-24-14.7-60.6-19-89-10.4
		c-3.7,1.1-7.6-1-8.7-4.6c-1.1-3.7,1-7.6,4.6-8.7C71,73.2,111.3,78,138.8,94.9C142.1,96.9,143.1,101.2,141.1,104.5L141.1,104.5
		L141.1,104.5z M142,79.1L142,79.1c-28.7-17-76.2-18.6-103.7-10.3c-4.4,1.3-9.1-1.2-10.4-5.6s1.2-9.1,5.6-10.4
		c31.5-9.6,84-7.7,117.1,11.9c4,2.4,5.3,7.5,2.9,11.5S146,81.5,142,79.1L142,79.1L142,79.1z M242.8,82.4L242.8,82.4
		c-15.4-3.7-18.1-6.3-18.1-11.7c0-5.1,4.8-8.6,12-8.6c6.9,0,13.8,2.6,21.1,8c0.2,0.2,0.5,0.2,0.8,0.2s0.5-0.2,0.7-0.4l7.5-10.6
		c0.3-0.4,0.2-1-0.2-1.4C258,51,248.3,47.6,237,47.6c-16.6,0-28.3,10-28.3,24.3c0,15.3,10,20.7,27.4,24.9
		c14.7,3.4,17.2,6.2,17.2,11.3c0,5.6-5,9.2-13.1,9.2c-9,0-16.4-3-24.5-10.1c-0.2-0.2-0.5-0.3-0.7-0.3c-0.3,0-0.5,0.1-0.7,0.3
		l-8.4,10c-0.3,0.4-0.3,1,0.1,1.4c9.6,8.5,21.3,13,34,13c17.9,0,29.5-9.8,29.5-25C269.3,94.1,261.7,87,242.8,82.4L242.8,82.4
		L242.8,82.4z M309.9,67.2L309.9,67.2c-7.8,0-14.1,3.1-19.4,9.3v-7.1c0-0.6-0.5-1-1-1h-13.8c-0.6,0-1,0.5-1,1V148c0,0.6,0.5,1,1,1
		h13.8c0.6,0,1-0.5,1-1v-24.8c5.3,5.9,11.7,8.8,19.4,8.8c14.5,0,29.1-11.1,29.1-32.4C338.9,78.4,324.3,67.2,309.9,67.2L309.9,67.2z
		 M322.9,99.6L322.9,99.6c0,10.8-6.7,18.4-16.2,18.4c-9.4,0-16.6-7.9-16.6-18.4s7.1-18.4,16.6-18.4C316,81.2,322.9,89,322.9,99.6
		L322.9,99.6z M376.4,67.2L376.4,67.2c-18.6,0-33.2,14.3-33.2,32.6c0,18.1,14.5,32.3,32.9,32.3c18.7,0,33.3-14.3,33.3-32.5
		C409.4,81.5,394.9,67.2,376.4,67.2L376.4,67.2z M376.4,118.1L376.4,118.1c-9.9,0-17.3-8-17.3-18.5c0-10.6,7.2-18.3,17.1-18.3
		s17.5,7.9,17.5,18.5C393.6,110.4,386.4,118.1,376.4,118.1z M449.1,68.5L449.1,68.5H434V53c0-0.6-0.5-1-1-1h-13.8c-0.6,0-1,0.5-1,1
		v15.5h-6.6c-0.6,0-1,0.5-1,1v11.8c0,0.6,0.5,1,1,1h6.6V113c0,12.4,6.2,18.7,18.4,18.7c4.9,0,9-1,12.9-3.2c0.3-0.2,0.5-0.5,0.5-0.9
		v-11.3c0-0.3-0.2-0.7-0.5-0.9c-0.3-0.2-0.7-0.2-1-0.1c-2.7,1.3-5.2,2-8.1,2c-4.4,0-6.4-2-6.4-6.5V82.4h15.2c0.6,0,1-0.5,1-1V69.5
		C450.2,68.9,449.7,68.5,449.1,68.5L449.1,68.5L449.1,68.5z M502.1,68.5L502.1,68.5v-1.9c0-5.6,2.2-8.1,7-8.1c2.9,0,5.2,0.6,7.8,1.4
		c0.3,0.1,0.7,0.1,0.9-0.1s0.4-0.5,0.4-0.8V47.4c0-0.5-0.3-0.9-0.7-1c-2.7-0.8-6.2-1.6-11.5-1.6c-12.7,0-19.5,7.2-19.5,20.7v2.9
		h-6.6c-0.6,0-1,0.5-1,1v11.9c0,0.6,0.5,1,1,1h6.6v47.3c0,0.6,0.5,1,1,1h13.8c0.6,0,1-0.5,1-1V82.4h12.9l19.7,47.3
		c-2.2,5-4.5,6-7.5,6c-2.4,0-5-0.7-7.6-2.2c-0.3-0.1-0.5-0.1-0.8-0.1c-0.3,0.1-0.5,0.3-0.6,0.5l-4.7,10.3c-0.2,0.5,0,1,0.4,1.3
		c4.9,2.6,9.3,3.8,14.7,3.8c10.2,0,15.8-4.8,20.8-17.5l24-61.9c0.1-0.3,0.1-0.7-0.1-0.9c-0.2-0.3-0.5-0.5-0.8-0.5h-14.4
		c-0.4,0-0.8,0.3-1,0.7l-14.7,42l-16.1-42.1c-0.1-0.4-0.5-0.7-0.9-0.7L502.1,68.5L502.1,68.5L502.1,68.5z M471.4,68.5L471.4,68.5
		h-13.8c-0.6,0-1,0.5-1,1v60.2c0,0.6,0.5,1,1,1h13.8c0.6,0,1-0.5,1-1V69.5C472.4,68.9,472,68.5,471.4,68.5L471.4,68.5z M464.6,41.1
		L464.6,41.1c-5.5,0-9.9,4.4-9.9,9.9s4.4,9.9,9.9,9.9s9.9-4.4,9.9-9.9S470,41.1,464.6,41.1z M585.5,87.8L585.5,87.8
		c-5.5,0-9.7-4.4-9.7-9.7s4.3-9.8,9.8-9.8s9.7,4.4,9.7,9.7C595.2,83.4,590.9,87.8,585.5,87.8z M585.5,69.3L585.5,69.3
		c-5,0-8.7,4-8.7,8.8s3.7,8.7,8.7,8.7s8.7-3.9,8.7-8.8S590.5,69.3,585.5,69.3z M587.7,79.1L587.7,79.1l2.7,3.9h-2.3l-2.5-3.5h-2.1
		V83h-1.9V72.7h4.5c2.4,0,3.9,1.2,3.9,3.3C590.1,77.7,589.1,78.7,587.7,79.1L587.7,79.1L587.7,79.1z M586,74.5L586,74.5h-2.5v3.2
		h2.5c1.2,0,2-0.6,2-1.6S587.3,74.5,586,74.5z"/>
</g>
</svg>
